<svg width="13" height="11" viewBox="0 0 13 11" fill="none" xmlns="http://www.w3.org/2000/svg">
<path fill-rule="evenodd" clip-rule="evenodd" d="M5.07288 3.65401L6.40173 1.52801L7.73057 3.65401C7.77603 3.72678 7.83599 3.78942 7.9067 3.83802C7.97742 3.88661 8.05738 3.92013 8.14161 3.93648C8.22585 3.95283 8.31254 3.95166 8.39631 3.93305C8.48007 3.91444 8.5591 3.87878 8.62848 3.8283L11.4818 1.75303L10.3861 7.50818C10.378 7.55011 10.3557 7.58794 10.3228 7.61518C10.2899 7.64242 10.2486 7.65737 10.2059 7.65746H2.5983C2.55548 7.65754 2.51398 7.64267 2.48095 7.61542C2.44792 7.58816 2.42545 7.55024 2.4174 7.50818L1.32167 1.7523L4.17497 3.82756C4.24433 3.87792 4.32331 3.91348 4.407 3.93202C4.49068 3.95057 4.57729 3.9517 4.66143 3.93536C4.74557 3.91901 4.82545 3.88554 4.89611 3.83701C4.96676 3.78848 5.02669 3.72594 5.07215 3.65328M6.93121 0.294025C6.87503 0.204058 6.79689 0.129864 6.70413 0.0784262C6.61138 0.0269888 6.50706 0 6.40099 0C6.29493 0 6.19061 0.0269888 6.09785 0.0784262C6.00509 0.129864 5.92695 0.204058 5.87078 0.294025L4.40883 2.63476L0.993685 0.150624C0.535539 -0.182506 -0.0946886 0.216809 0.0119427 0.772763L1.33343 7.71482C1.38959 8.00911 1.54665 8.27457 1.77755 8.46547C2.00845 8.65636 2.29871 8.76072 2.5983 8.76054H10.2059C10.5055 8.76051 10.7956 8.65598 11.0264 8.46495C11.2572 8.27392 11.414 8.00838 11.47 7.71409L12.7915 0.772763C12.8981 0.216809 12.2687 -0.183242 11.8105 0.150624L8.39463 2.63476L6.93121 0.294025ZM1.9894 9.86363C1.84312 9.86363 1.70284 9.92173 1.5994 10.0252C1.49597 10.1286 1.43786 10.2689 1.43786 10.4152C1.43786 10.5614 1.49597 10.7017 1.5994 10.8052C1.70284 10.9086 1.84312 10.9667 1.9894 10.9667H10.8141C10.9603 10.9667 11.1006 10.9086 11.2041 10.8052C11.3075 10.7017 11.3656 10.5614 11.3656 10.4152C11.3656 10.2689 11.3075 10.1286 11.2041 10.0252C11.1006 9.92173 10.9603 9.86363 10.8141 9.86363H1.9894Z" fill="#2B2C64"/>
</svg>
