<svg width="24" height="24" viewBox="0 0 24 24" fill="none" xmlns="http://www.w3.org/2000/svg">
<path d="M6.05993 2.38477C5.88264 2.38486 5.70863 2.43256 5.55608 2.52289C5.40352 2.61321 5.27802 2.74285 5.19269 2.89825L1.56269 9.49825C1.46702 9.67233 1.42594 9.87116 1.44477 10.0689C1.4636 10.2666 1.54148 10.4542 1.66829 10.607L11.2383 22.157C11.3312 22.2692 11.4477 22.3594 11.5794 22.4213C11.7112 22.4833 11.855 22.5154 12.0006 22.5154C12.1462 22.5154 12.29 22.4833 12.4218 22.4213C12.5535 22.3594 12.67 22.2692 12.7629 22.157L22.3329 10.607C22.4597 10.4542 22.5376 10.2666 22.5564 10.0689C22.5752 9.87116 22.5342 9.67233 22.4385 9.49825L18.8085 2.89825C18.723 2.74265 18.5973 2.61289 18.4445 2.52255C18.2917 2.43221 18.1174 2.38462 17.9399 2.38477H6.05993ZM4.28585 8.65477L6.64469 4.36477H8.62469L7.12253 8.65477H4.28585ZM6.91001 10.6348L9.45629 16.9021L4.26209 10.6348H6.91001ZM11.9854 17.8697L9.04709 10.6348H14.8366L11.9854 17.8697ZM9.22133 8.65477L10.7222 4.36477H13.2896L14.8696 8.65477H9.22133ZM16.9803 8.65477L15.4003 4.36477H17.3539L19.714 8.65477H16.9803ZM16.9644 10.6348H19.7365L14.4499 17.0156L16.9644 10.6348Z" fill="url(#paint0_linear_441_19375)"/>
<defs>
<linearGradient id="paint0_linear_441_19375" x1="11.5" y1="1.5" x2="12.0006" y2="22.5154" gradientUnits="userSpaceOnUse">
<stop stop-color="#2B2C69"/>
<stop offset="1" stop-color="#585AC4"/>
</linearGradient>
</defs>
</svg>
